<svg width="100" height="100" viewBox="0 0 100 100" fill="none" xmlns="http://www.w3.org/2000/svg">
<path d="M49.5139 20.8491C38.8133 20.8491 30.1111 29.5589 30.1111 40.2706C30.1111 50.9712 38.8132 59.6734 49.5139 59.6734C60.2263 59.6734 68.9353 50.9713 68.9353 40.2706C68.9353 29.5621 60.2256 20.8491 49.5139 20.8491ZM49.5139 56.5341C40.5438 56.5341 33.2425 49.2333 33.2425 40.2627C33.2425 31.2811 40.5433 23.9727 49.5139 23.9727C58.4955 23.9727 65.8039 31.285 65.8039 40.2627C65.8078 49.2405 58.4954 56.5341 49.5139 56.5341Z" fill="#006478"/>
<path d="M77.0181 35.2411C76.3482 34.751 75.8198 34.3605 75.5365 33.6714C75.1077 32.5994 75.3757 31.9715 75.8275 30.9111C76.4094 29.552 77.1981 27.6913 75.7165 25.1301C74.2349 22.5688 72.2556 22.3315 70.8046 22.1593C69.7134 22.0291 69.1162 21.9295 68.473 21.2902C67.8413 20.6508 67.7341 20.0191 67.6116 18.9587C67.4432 17.5191 67.202 15.5398 64.6408 14.0697C62.0795 12.5881 60.2189 13.3806 58.8522 13.9587C57.7725 14.4181 57.1217 14.6976 56.0306 14.2075C55.3721 13.9166 55.0007 13.4074 54.5222 12.7565C53.6876 11.6003 52.516 10 49.5145 10C46.5359 10 45.3644 11.6003 44.5145 12.7603C44.0436 13.4112 43.6646 13.9204 43.0138 14.2113C41.9226 14.6899 41.2641 14.4219 40.1922 13.9625C38.8331 13.3806 36.9609 12.5843 34.4112 14.062C31.85 15.5322 31.6126 17.5114 31.4404 18.951C31.3102 20.0115 31.2107 20.6509 30.579 21.2825C29.9396 21.9219 29.3079 22.0329 28.2398 22.1516C26.7888 22.3201 24.8095 22.5612 23.3279 25.1224C21.8578 27.6837 22.6579 29.5443 23.236 30.8919C23.6878 31.9524 23.9672 32.5918 23.5346 33.6522C23.2437 34.3529 22.723 34.7434 22.053 35.2334C20.8815 36.0948 19.2812 37.274 19.2812 40.2526C19.2812 43.2043 20.893 44.3912 22.0607 45.2717C22.9795 45.9608 23.4696 46.3628 23.6724 47.3238C23.8409 48.1354 23.6227 48.7136 23.213 49.6553C22.6426 50.9838 21.8539 52.8061 23.324 55.3674C24.8133 57.9478 26.7927 58.166 28.2436 58.3382C29.2352 58.4493 29.8248 58.5373 30.4143 59.0388C31.1953 59.7088 31.3025 60.3405 31.4442 61.5082C31.4633 61.7187 31.4939 61.937 31.5361 62.1667L23.324 83.5375C23.0943 84.1271 23.2436 84.7971 23.703 85.2374C24.1624 85.6776 24.8439 85.7887 25.422 85.5283L31.8117 82.68L34.66 89.0697C34.9089 89.6401 35.4716 90 36.0918 90H36.1301C36.7618 89.9809 37.3207 89.5903 37.5505 88.9893L45.3108 68.7485C46.1416 69.6597 47.3513 70.5097 49.5107 70.5097C51.6814 70.5097 52.9027 69.6597 53.7297 68.7485L61.49 88.9893C61.7197 89.5789 62.2787 89.9809 62.9103 90H62.9486C63.5688 90 64.1278 89.6401 64.3804 89.0697L67.2288 82.68L73.6184 85.5283C74.2004 85.7887 74.8781 85.67 75.3374 85.2374C75.7968 84.7971 75.9461 84.1271 75.7164 83.5375L67.5273 62.1745C67.5579 61.9563 67.5886 61.7342 67.6077 61.5352C67.7494 60.3637 67.8566 59.7242 68.6376 59.0658C69.2387 58.5566 69.8167 58.4762 70.8083 58.3576C72.2478 58.1968 74.2271 57.967 75.7087 55.3982C77.1903 52.8369 76.4093 51.0184 75.8389 49.6861C75.4407 48.7443 75.2072 48.1777 75.3871 47.3546C75.5862 46.3936 76.0763 45.9955 76.9989 45.3025C78.1704 44.4334 79.7783 43.2313 79.7783 40.2834C79.7783 37.2818 78.1782 36.1025 77.0181 35.2411ZM35.9848 84.3455L34.0361 79.9734C33.6877 79.1847 32.7573 78.8248 31.9648 79.1847L27.5928 81.1334L33.4618 65.8235C33.7337 66.0417 34.0323 66.2523 34.3807 66.4552C36.9305 67.9444 38.7911 67.1558 40.1502 66.5739C41.1686 66.1451 41.8386 65.8541 42.899 66.2752L35.9848 84.3455ZM71.4483 81.1257L67.0762 79.177C66.2875 78.8286 65.3572 79.177 65.005 79.9656L63.0563 84.3377L56.1268 66.2561C57.1872 65.8349 57.8572 66.1259 58.8756 66.5547C60.2347 67.1366 62.0954 67.9253 64.6375 66.4437C64.9859 66.2446 65.2883 66.0225 65.5563 65.8043L71.4483 81.1257ZM75.1275 42.7719C74.1359 43.5108 72.7768 44.5215 72.3288 46.6808C71.9306 48.5108 72.4973 49.8393 72.9605 50.9112C73.4505 52.0522 73.6994 52.6226 72.9988 53.8209C72.3097 55.0307 71.6895 55.0996 70.4566 55.2413C69.3464 55.3714 67.9681 55.5207 66.6052 56.6731C64.8555 58.1623 64.645 59.8929 64.4957 61.1638C64.3464 62.4235 64.266 63.0551 63.0639 63.7442C61.8733 64.4448 61.2837 64.196 60.1045 63.683C58.8833 63.1623 57.2141 62.454 54.9553 63.3614C54.3044 63.6217 53.8067 63.9624 53.3741 64.33C53.2056 64.441 53.0525 64.5788 52.9453 64.7396C52.5739 65.1301 52.2753 65.5283 52.0035 65.8882C51.2723 66.8797 50.9047 67.3774 49.5035 67.3774C48.1253 67.3774 47.7538 66.8759 47.0227 65.8958C46.7509 65.536 46.4522 65.134 46.0809 64.7473C45.9699 64.5865 45.8205 64.4372 45.6406 64.3261C45.2195 63.9548 44.7103 63.6179 44.0594 63.3575C43.2708 63.0359 42.551 62.9173 41.9002 62.9173C40.6789 62.9173 39.6988 63.3384 38.8987 63.6791C37.7195 64.1807 37.1299 64.4295 35.9278 63.7289C34.7295 63.0398 34.6568 62.408 34.5075 61.1485C34.3582 59.8889 34.1591 58.1585 32.398 56.6577C31.0466 55.5092 29.6683 55.3561 28.5466 55.2259C27.3062 55.0843 26.686 55.0154 25.9853 53.8056C25.2962 52.6072 25.545 52.0368 26.0351 50.8959C26.4945 49.8355 27.065 48.5069 26.6859 46.6846C26.2342 44.5139 24.875 43.5031 23.8758 42.7642C22.8652 42.0138 22.3559 41.6349 22.3559 40.2527C22.3559 38.8515 22.8574 38.484 23.8451 37.7527C24.6951 37.1325 25.7555 36.3515 26.3757 34.8316C27.2946 32.5498 26.5863 30.8806 26.0541 29.6516C25.545 28.4725 25.2923 27.8828 25.9852 26.6808C26.6744 25.4824 27.3061 25.402 28.5465 25.2604C29.7065 25.1188 31.3068 24.9312 32.7464 23.4802C34.1667 22.0484 34.3581 20.471 34.496 19.3186C34.6453 18.0782 34.7142 17.458 35.9278 16.7688C37.1262 16.0682 37.7272 16.3286 38.9179 16.8301C40.1698 17.3699 41.8887 18.1012 44.228 17.0713C45.6484 16.4396 46.3987 15.4212 46.9998 14.6019C47.7196 13.6219 48.0795 13.1203 49.4806 13.1203C50.8895 13.1203 51.2494 13.6104 51.9806 14.6019C52.5817 15.4212 53.332 16.432 54.7524 17.0636C57.0916 18.0935 58.8144 17.3623 60.0625 16.8224C61.2531 16.3133 61.8542 16.0606 63.0526 16.7612C64.2509 17.4503 64.3236 18.0705 64.4729 19.311C64.6146 20.4596 64.8022 22.0407 66.2226 23.4725C67.6544 24.9236 69.2548 25.1112 70.4147 25.2528C71.6551 25.4021 72.2829 25.471 72.976 26.6731C73.6766 27.8715 73.4162 28.4648 72.9147 29.6517C72.394 30.873 71.6743 32.5422 72.6046 34.8239C73.2248 36.3324 74.2852 37.1133 75.1352 37.7336C76.1267 38.4648 76.6244 38.8324 76.6244 40.2336C76.6474 41.6425 76.1496 42.0215 75.1275 42.7719Z" fill="#006478"/>
<path d="M54.2961 33.6632C53.6261 32.082 52.8758 30.5238 52.0067 28.9043C51.4975 27.9625 50.5175 27.373 49.4454 27.373C48.3734 27.373 47.3933 27.9549 46.8842 28.9043C46.0228 30.5046 45.2226 32.1738 44.5029 33.8852C42.9944 34.0345 41.3635 34.245 39.4416 34.536C38.3619 34.7274 37.5005 35.4663 37.1522 36.5076C36.8038 37.5681 37.0603 38.6783 37.8719 39.4862C39.2119 40.8071 40.4025 41.9364 41.5435 42.9549C41.1147 44.7963 40.7739 46.6569 40.525 48.5138C40.4064 49.5858 40.8466 50.5927 41.6736 51.1938C42.5235 51.8446 43.6147 51.9633 44.6139 51.523C46.264 50.7841 47.8834 49.9227 49.4454 48.9541C51.0075 49.9227 52.6269 50.7956 54.2846 51.5345C54.6751 51.7029 55.0848 51.7948 55.483 51.7948C56.0917 51.7948 56.6928 51.6034 57.1828 51.2244C58.0328 50.6042 58.473 49.5934 58.3543 48.4946C58.1131 46.6531 57.7724 44.7925 57.3437 42.9625C58.653 41.7834 59.9432 40.5621 61.1951 39.314C61.957 38.5521 62.2365 37.4341 61.9263 36.4235C61.6162 35.3821 60.8046 34.6241 59.725 34.3944C57.9869 34.0307 56.1683 33.7933 54.2961 33.6632ZM54.5679 41.2436C54.1276 41.6341 53.9362 42.2351 54.0894 42.8056C54.5679 44.7045 54.9508 46.634 55.2111 48.5253C53.5304 47.7558 51.8918 46.8369 50.3221 45.8033C50.0618 45.6349 49.7631 45.543 49.4607 45.543C49.1621 45.543 48.8596 45.6349 48.5993 45.8033C47.0296 46.8447 45.3795 47.752 43.7103 48.5253C43.9706 46.6264 44.3496 44.6969 44.832 42.8056C44.9737 42.2352 44.7937 41.6341 44.342 41.2436C43.1016 40.1524 41.842 38.9847 40.391 37.5644C42.4201 37.2658 44.1314 37.0552 45.7432 36.9136C46.3328 36.8638 46.842 36.4848 47.0641 35.9335C47.7723 34.1532 48.584 32.4112 49.4645 30.742C50.3642 32.4419 51.126 34.0804 51.796 35.7421C52.0257 36.3125 52.5656 36.6915 53.1742 36.7222C55.0961 36.814 56.9644 37.0323 58.714 37.373C57.3549 38.713 55.9653 40.0108 54.5679 41.2436Z" fill="#006478"/>
</svg>
