<svg width="436" height="373" viewBox="0 0 436 373" fill="none" xmlns="http://www.w3.org/2000/svg">
<g clip-path="url(#clip0_187_2862)">
<path d="M222.166 372.966C303.539 372.966 369.506 359.839 369.506 343.645C369.506 327.452 303.539 314.324 222.166 314.324C140.792 314.324 74.8262 327.452 74.8262 343.645C74.8262 359.839 140.792 372.966 222.166 372.966Z" fill="#E2F5F8"/>
<path d="M181.885 269.617C156.5 259.093 132.788 243.966 111.939 224.735C70.2904 186.321 40.224 131.687 27.0488 70.4375" stroke="#6CCCDF" stroke-miterlimit="10"/>
<path d="M29.3809 80.4785C29.3809 80.4785 13.3906 66.156 22.7692 39.5547C22.7692 39.5547 37.73 51.9944 29.3809 80.4785Z" fill="#6CCCDF"/>
<path d="M34.4487 98.6317C34.4487 98.6317 13.7932 99.0984 7.66406 78.9824C7.66406 78.9824 25.8744 80.479 34.4487 98.6317Z" fill="#6CCCDF"/>
<path d="M37.3113 107.386C37.3113 107.386 48.1056 88.8474 44.2448 66.0762C44.2448 66.0762 32.8553 84.9691 37.3113 107.386Z" fill="#6CCCDF"/>
<path d="M43.5371 123.994C43.5371 123.994 23.1711 125.282 15.8516 108.867C15.8516 108.867 34.1745 108.98 43.5371 123.994Z" fill="#6CCCDF"/>
<path d="M46.8992 131.958C46.8992 131.958 41.7031 113.629 52.6261 89.9883C52.6261 89.9883 57.1465 113.355 46.8992 131.958Z" fill="#6CCCDF"/>
<path d="M53.4801 145.993C53.4801 145.993 32.1328 147.2 24.3789 132.137C24.3789 132.137 41.7688 129.9 53.4801 145.993Z" fill="#6CCCDF"/>
<path d="M58.9652 156.403C58.9652 156.403 53.56 138.202 61.3461 116.992C61.3461 116.992 69.0839 133.294 58.9652 156.403Z" fill="#6CCCDF"/>
<path d="M64.3216 165.706C64.3216 165.706 45.1299 168.651 37.1348 155.213C37.1348 155.213 55.2003 154.151 64.3216 165.706Z" fill="#6CCCDF"/>
<path d="M69.9037 174.105C69.9037 174.105 74.7137 158.833 70.7402 139.441C70.7402 139.441 62.8255 159.268 69.9037 174.105Z" fill="#6CCCDF"/>
<path d="M75.1971 182.49C75.1971 182.49 55.4907 185.435 47.4473 173.043C47.4473 173.043 63.2768 169.664 75.1971 182.49Z" fill="#6CCCDF"/>
<path d="M80.8761 190.6C80.8761 190.6 85.9917 172.882 80.1683 157.916C80.1683 157.916 73.7174 176.02 80.8761 190.6Z" fill="#6CCCDF"/>
<path d="M88.6451 200.128C88.6451 200.128 71.4321 202.703 61.6191 192.227C61.6191 192.227 79.3951 189.555 88.6451 200.128Z" fill="#6CCCDF"/>
<path d="M94.0666 206.453C94.0666 206.453 86.5379 194.609 90.1735 177.631C90.1735 177.631 97.3805 188.654 94.0666 206.453Z" fill="#6CCCDF"/>
<path d="M102.786 215.851C102.786 215.851 86.2486 219.134 75.0039 208.642C75.0039 208.642 90.0451 205.648 102.786 215.851Z" fill="#6CCCDF"/>
<path d="M106.695 219.762C106.695 219.762 99.4883 205.986 101.322 192.275C101.322 192.275 110.749 199.71 106.695 219.762Z" fill="#6CCCDF"/>
<path d="M115.768 228.195C115.929 228.291 99.1828 231.912 90.0938 224.719C90.0938 224.719 102.642 219.923 115.768 228.195Z" fill="#6CCCDF"/>
<path d="M120.047 231.879C120.047 231.879 112.245 220.356 115.124 203.121C115.124 203.121 124.246 214.531 119.757 233.038" fill="#6CCCDF"/>
<path d="M127.383 237.817C127.383 237.817 112.535 243.385 102.609 235.532C102.609 235.532 116.428 229.786 127.383 237.817Z" fill="#6CCCDF"/>
<path d="M132.145 241.438C132.145 241.438 125.421 234.099 127.303 216.703C127.303 216.703 135.266 225.763 132.145 241.438Z" fill="#6CCCDF"/>
<path d="M144.21 249.79C144.21 249.79 125.581 255.068 116.975 248.406C116.975 248.406 130.23 241.389 144.21 249.79Z" fill="#6CCCDF"/>
<path d="M149.131 252.896C149.131 252.896 138.675 242.661 141.023 225.764C141.023 225.764 151.303 235.081 149.131 252.896Z" fill="#6CCCDF"/>
<path d="M67.1864 145.822L64.9664 143.199L65.7386 142.556C66.5912 141.831 67.2669 141.075 67.7495 140.303C68.2321 139.53 68.409 138.661 68.2642 137.728C68.1195 136.778 67.5403 135.716 66.5269 134.509L39.5492 102.629C38.5035 101.39 37.5383 100.618 36.6374 100.296C35.7527 99.9902 34.9001 99.9902 34.0796 100.328C33.2592 100.666 32.4549 101.149 31.6988 101.793L30.6692 102.662L28.4492 100.039L41.4635 89.015L83.6594 116.904L63.0682 70.7175L75.9538 59.8066L78.1738 62.4298L77.0799 63.347C76.3559 63.9586 75.7768 64.6345 75.3264 65.3747C74.892 66.115 74.7633 66.9518 74.9403 67.9013C75.1172 68.8508 75.7446 69.9612 76.8385 71.2486L103.543 102.806C104.588 104.046 105.57 104.85 106.471 105.22C107.371 105.591 108.24 105.623 109.061 105.285C109.881 104.947 110.701 104.448 111.506 103.756L112.471 102.935L114.691 105.558L99.1832 118.69L96.9632 116.067L97.5424 115.584C98.4432 114.828 99.0706 114.087 99.4567 113.363C99.8428 112.639 99.9071 111.835 99.6497 110.933C99.3923 110.032 98.765 108.97 97.7032 107.731L68.9399 73.743L91.6063 125.111L88.1476 128.04L41.1579 97.4798L69.7121 131.21C70.8381 132.53 71.8355 133.399 72.7203 133.785C73.6051 134.171 74.4255 134.22 75.2138 133.93C76.002 133.64 76.7742 133.157 77.5303 132.514L78.0451 132.079L80.265 134.702L67.1864 145.774V145.822Z" fill="#0E282D"/>
<path d="M116.894 105.897L115.43 102.775L116.653 102.195C117.618 101.745 118.406 101.214 119.018 100.618C119.629 100.023 119.983 99.2503 120.063 98.3169C120.144 97.3835 119.854 96.2087 119.195 94.7765L101.531 57.3126C100.775 55.6872 99.9868 54.609 99.1985 54.0457C98.4103 53.4825 97.5898 53.2572 96.7372 53.3538C95.8846 53.4503 94.9677 53.7239 94.0185 54.1745L92.7959 54.7538L91.332 51.6318L124.6 35.9414L131.131 49.0248L127.56 50.7145L125.678 47.7052C125.098 46.6109 124.391 45.6775 123.522 44.9051C122.669 44.1326 121.688 43.6498 120.61 43.4406C119.532 43.2475 118.326 43.4406 117.007 44.0682L106.454 49.0409L116.025 69.3339L131.517 62.0277L133.238 65.6808L117.747 72.9869L128.525 95.8547L140.687 90.1257C142.102 89.4498 143.1 88.6291 143.663 87.6635C144.226 86.6979 144.499 85.6036 144.499 84.4288C144.499 83.2541 144.322 82.0632 143.936 80.8885L142.81 77.5251L146.462 75.8031L152.237 89.2406L116.91 105.913L116.894 105.897Z" fill="#0E282D"/>
<path d="M154.715 87.8398L153.991 84.4764L155.391 84.1706C156.436 83.9453 157.321 83.6074 158.045 83.1246C158.769 82.6579 159.268 81.9498 159.525 81.0003C159.783 80.0509 159.734 78.7635 159.38 77.122L150.693 36.697C150.356 35.1038 149.857 33.9612 149.23 33.2692C148.602 32.5773 147.83 32.1749 146.961 32.0784C146.093 31.9818 145.127 32.0462 144.082 32.2715L142.843 32.5451L142.119 29.1817L163.885 24.4987C168.759 23.4527 173.167 23.7102 177.108 25.2711C181.049 26.8321 184.412 29.584 187.178 33.5428C189.945 37.5016 192.005 42.603 193.34 48.847C194.627 54.8174 194.868 60.1924 194.096 64.972C193.324 69.7515 191.474 73.6942 188.562 76.8162C185.65 79.9382 181.629 82.0464 176.481 83.1568L154.715 87.8398ZM173.955 79.4072C177.623 78.6186 180.438 76.9932 182.401 74.5471C184.363 72.085 185.554 68.8503 185.988 64.8432C186.422 60.82 186.052 56.1049 184.878 50.6816C183.704 45.2583 182.127 40.7846 180.116 37.2763C178.105 33.752 175.676 31.2898 172.845 29.8576C170.014 28.4253 166.796 28.1035 163.193 28.8759L157.45 30.1151L168.309 80.6302L173.971 79.4072H173.955Z" fill="#0E282D"/>
<path d="M203.956 78.7465L203.86 75.3026L205.292 75.2704C206.305 75.2383 207.206 75.0773 208.01 74.7716C208.815 74.4658 209.442 73.8865 209.892 73.0014C210.343 72.1163 210.552 70.861 210.504 69.2517L209.41 28.0865C209.362 26.3485 209.088 25.0611 208.589 24.2403C208.091 23.4196 207.431 22.8564 206.611 22.5667C205.79 22.277 204.873 22.1483 203.876 22.1805L202.444 22.2126L202.348 18.7688L223.92 18.1895L224.017 21.6333L222.505 21.6816C221.491 21.7138 220.59 21.8908 219.786 22.2126C218.981 22.5506 218.37 23.1299 217.936 23.9828C217.502 24.8358 217.325 26.1232 217.373 27.8612L218.467 68.9299C218.515 70.6035 218.772 71.8588 219.239 72.6956C219.705 73.5163 220.365 74.0796 221.218 74.3692C222.07 74.6589 222.971 74.7877 223.92 74.7555L225.432 74.7072L225.529 78.151L203.956 78.7304V78.7465Z" fill="#0E282D"/>
<path d="M236.212 78.6829L236.678 75.2712L238.175 75.4804C239.22 75.6252 240.234 75.6413 241.183 75.5126C242.132 75.3839 242.936 74.9654 243.612 74.2413C244.271 73.5171 244.722 72.3423 244.947 70.7331L251.35 24.3698L244.69 23.4526C242.695 23.179 241.183 23.6779 240.153 24.9492C239.124 26.2205 238.384 27.7654 237.901 29.5517L237.081 32.9956L233.252 32.4645L235.585 18.0293L276.268 23.6457L274.595 38.1774L270.767 37.6464L270.831 34.0899C270.911 32.2392 270.638 30.5655 269.994 29.0528C269.351 27.5562 267.984 26.655 265.876 26.3653L259.216 25.4481L252.878 71.3929C252.637 73.1148 252.717 74.4344 253.135 75.3678C253.538 76.3011 254.181 76.977 255.066 77.3794C255.951 77.7817 256.932 78.0553 258.042 78.2162L259.538 78.4254L259.071 81.8371L236.196 78.6829H236.212Z" fill="#0E282D"/>
<path d="M262.98 81.3071L264.139 78.0564L265.329 78.4748C266.23 78.7966 267.002 78.8932 267.678 78.7645C268.337 78.6518 269.077 78.2173 269.866 77.4931C270.654 76.769 271.619 75.6425 272.745 74.1458L304.324 32.3047L310.26 34.4128L308.008 89.3213C307.975 90.4317 308.056 91.3329 308.265 91.9927C308.474 92.6525 308.86 93.2318 309.407 93.6824C309.954 94.1491 310.678 94.5354 311.579 94.8572L312.287 95.1147L311.145 98.3654L291.905 91.5421L293.047 88.2914L294.623 88.8546C295.991 89.3374 297.117 89.4179 297.986 89.0638C298.854 88.7098 299.466 88.0178 299.852 86.9557C299.98 86.5855 300.077 86.1832 300.157 85.7326C300.222 85.282 300.302 84.7671 300.382 84.2038C300.463 83.6406 300.511 83.0934 300.511 82.5623L301.01 73.3734L283.507 67.1777L278.456 74.1297C278.15 74.4999 277.845 74.9344 277.555 75.4172C277.266 75.8999 276.976 76.3666 276.703 76.8172C276.429 77.2517 276.204 77.7184 276.043 78.1851C275.657 79.2955 275.673 80.2933 276.14 81.2106C276.59 82.1117 277.587 82.8359 279.116 83.3831L280.853 83.9946L279.711 87.2453L263.013 81.3232L262.98 81.3071ZM286.21 63.7821L301.09 69.0605L302.12 52.839C302.265 51.101 302.361 49.4596 302.442 47.9147C302.506 46.3698 302.619 44.9375 302.763 43.6179C302.908 42.2983 303.021 41.0913 303.117 39.997C302.554 40.9304 301.911 41.9282 301.203 43.0225C300.495 44.1007 299.739 45.2111 298.967 46.3215C298.179 47.448 297.31 48.6227 296.329 49.8941L286.242 63.7821H286.21Z" fill="#0E282D"/>
<path d="M313.493 101.069L315.279 98.1238L316.566 98.9124C317.483 99.4595 318.4 99.8618 319.317 100.135C320.234 100.409 321.15 100.329 322.051 99.9262C322.952 99.5239 323.821 98.6227 324.657 97.2387L348.852 57.1839L343.093 53.7078C341.372 52.6618 339.779 52.5331 338.347 53.2894C336.9 54.0458 335.613 55.1723 334.454 56.6367L332.347 59.4851L329.033 57.4896L336.883 45.1465L372.033 66.405L364.762 79.0861L361.448 77.0906L362.912 73.8559C363.716 72.1823 364.135 70.5408 364.135 68.8994C364.135 67.274 363.234 65.9061 361.416 64.7957L355.657 61.3197L331.671 101.021C330.77 102.501 330.32 103.756 330.336 104.77C330.336 105.784 330.674 106.653 331.317 107.377C331.961 108.101 332.765 108.745 333.73 109.324L335.017 110.113L333.232 113.058L313.461 101.101L313.493 101.069Z" fill="#0E282D"/>
<path d="M342.191 118.674L344.54 116.164L345.521 117.081C346.294 117.805 347.082 118.352 347.87 118.69C348.658 119.044 349.495 119.076 350.396 118.819C351.297 118.561 352.278 117.837 353.356 116.695L381.62 86.4242C382.843 85.1207 383.567 83.9942 383.792 83.0447C384.017 82.1113 383.921 81.2584 383.519 80.5021C383.116 79.7457 382.521 79.0054 381.749 78.2813L380.768 77.364L383.116 74.8535L409.998 99.9743L400.265 110.885L397.385 108.182L399.493 105.317C400.297 104.384 400.892 103.37 401.295 102.292C401.697 101.213 401.777 100.119 401.568 99.0409C401.359 97.9627 400.715 96.9167 399.654 95.9189L391.128 87.9369L375.813 104.335L388.329 116.035L385.578 118.98L373.062 107.28L355.801 125.755L365.614 134.928C366.756 136.006 367.882 136.617 369.008 136.778C370.118 136.939 371.228 136.811 372.322 136.376C373.416 135.942 374.446 135.33 375.411 134.542L378.129 132.256L381.073 135.008L370.73 145.34L342.191 118.658V118.674Z" fill="#0E282D"/>
<path d="M309.118 243.833C364.223 215.045 405.308 160.718 418.014 99.8321" stroke="#B3E8F1" stroke-miterlimit="10"/>
<path d="M417.402 102.626C417.402 102.626 428.811 77.1512 418.246 75.7001C407.68 74.2651 417.402 102.626 417.402 102.626Z" fill="#B3E8F1"/>
<path d="M412.432 120.785C412.432 120.785 438.6 106.399 432.208 98.1308C425.817 89.8629 412.432 120.785 412.432 120.785Z" fill="#B3E8F1"/>
<path d="M412.435 120.787C412.435 120.787 398.122 97.5246 406.754 91.2722C415.385 85.0358 412.435 120.787 412.435 120.787Z" fill="#B3E8F1"/>
<path d="M408.211 132.624C408.211 132.624 433.249 126.11 430.787 117.747C428.326 109.385 408.211 132.624 408.211 132.624Z" fill="#B3E8F1"/>
<path d="M408.213 132.625C408.213 132.625 390.019 111.697 398.545 105.2C407.07 98.7026 408.213 132.625 408.213 132.625Z" fill="#B3E8F1"/>
<path d="M401.318 148.314C401.318 148.314 431.32 139.884 426.865 131.431C422.41 122.978 401.318 148.314 401.318 148.314Z" fill="#B3E8F1"/>
<path d="M401.32 148.315C401.32 148.315 381.778 118.928 390.755 115.745C399.731 112.561 401.32 148.315 401.32 148.315Z" fill="#B3E8F1"/>
<path d="M394.002 162.011C394.002 162.011 425.426 155.603 421.259 146.112C417.091 136.621 394.002 162.011 394.002 162.011Z" fill="#B3E8F1"/>
<path d="M394.003 162.012C394.003 162.012 373.677 134.679 384.102 129.831C394.528 124.983 394.003 162.012 394.003 162.012Z" fill="#B3E8F1"/>
<path d="M385.147 175.984C385.147 175.984 415.916 172.18 413.541 161.953C411.165 151.742 385.147 175.984 385.147 175.984Z" fill="#B3E8F1"/>
<path d="M385.149 175.986C385.149 175.986 368.38 146.389 377.672 142.362C386.963 138.334 385.149 175.986 385.149 175.986Z" fill="#B3E8F1"/>
<path d="M375.752 188.622C375.752 188.622 409.768 185.525 407.573 178.49C403.847 166.55 375.752 188.622 375.752 188.622Z" fill="#B3E8F1"/>
<path d="M375.753 188.625C375.753 188.625 381.633 153.41 370.737 153.366C359.841 153.322 375.753 188.625 375.753 188.625Z" fill="#B3E8F1"/>
<path d="M366.89 199.008C366.89 199.008 402.187 202.258 399.544 191.235C396.902 180.212 366.89 199.008 366.89 199.008Z" fill="#B3E8F1"/>
<path d="M366.89 199.01C366.89 199.01 349.09 169.448 360.972 165.463C372.837 161.479 366.89 199.01 366.89 199.01Z" fill="#B3E8F1"/>
<path d="M357.001 209.201C357.001 209.201 388.322 216.923 389.204 204.812C390.085 192.7 357.001 209.201 357.001 209.201Z" fill="#B3E8F1"/>
<path d="M357.003 209.202C357.003 209.202 361.568 178.264 352.065 177.938C342.561 177.613 357.003 209.202 357.003 209.202Z" fill="#B3E8F1"/>
<path d="M344.579 220.27C344.579 220.27 375.243 227.329 375.139 217.008C375.036 206.687 344.579 220.27 344.579 220.27Z" fill="#B3E8F1"/>
<path d="M344.579 220.272C344.579 220.272 332.598 189.318 342.351 186.575C352.105 183.833 344.579 220.272 344.579 220.272Z" fill="#B3E8F1"/>
<path d="M110.636 86.6919C107.966 99.0672 108.609 111.346 115.671 121.388C122.733 131.43 132.884 138.752 142.392 146.525C164.431 164.549 183.976 186.097 196.942 211.443C209.908 236.789 215.973 266.142 211.002 294.176C208.927 305.875 204.358 318.09 194.433 324.623C181.82 332.943 164.189 329.226 152.269 319.94C129.442 302.158 116.508 269.361 109.124 242.405C100.26 210.075 97.1874 176.151 100.035 142.743C101.643 123.753 105.183 104.925 110.652 86.6758L110.636 86.6919Z" fill="#46A4B7"/>
<path d="M110.926 128.727C127.238 173.432 144.644 222.66 162.709 266.384C167.712 278.309 173.343 291.118 179.343 302.528C180.453 304.411 182.915 308.563 184.008 310.446C165.75 283.201 154.634 251.917 142.504 221.646C131.099 190.989 120.304 160.075 110.926 128.727Z" fill="#E2F5F8"/>
<path d="M125.194 172.852L108.287 147.441L126.514 171.935L125.194 172.852Z" fill="#E2F5F8"/>
<path d="M128.814 183.055L129.506 146.572L130.423 183.055H128.814Z" fill="#E2F5F8"/>
<path d="M136.504 204.233L109.51 175.17L137.662 203.107L136.504 204.233Z" fill="#E2F5F8"/>
<path d="M141.957 218.91L144.515 163.809L143.566 218.958L141.957 218.91Z" fill="#E2F5F8"/>
<path d="M148.601 236.097L114.48 206.342L149.63 234.874L148.601 236.097Z" fill="#E2F5F8"/>
<path d="M153.893 249.438L160.987 186.129L155.485 249.599L153.893 249.438Z" fill="#E2F5F8"/>
<path d="M162.354 269.651L119.402 236.629L163.303 268.364L162.354 269.651Z" fill="#E2F5F8"/>
<path d="M170.543 287.579L183.155 216.062L172.136 287.836L170.543 287.579Z" fill="#E2F5F8"/>
<path d="M177.22 300.71L130.037 271.229L178.056 299.326L177.22 300.71Z" fill="#E2F5F8"/>
<path d="M127.335 312.457C112.423 301.418 101.226 285.116 88.6301 271.791C75.7767 258.176 60.4298 245.672 42.0586 242.1C69.6315 227.423 103.205 224.478 132.917 234.102C162.63 243.725 188.095 265.804 201.85 293.87C205.163 300.613 207.866 308.177 206.354 315.547C205.18 321.324 202.075 326.78 196.283 328.872C192.648 330.191 188.69 330.256 184.83 330.175C166.442 329.741 147.54 325.492 131.856 315.579C130.311 314.598 128.815 313.568 127.335 312.489V312.457Z" fill="#6CCCDF"/>
<path d="M72.3984 241.713C93.8101 250.58 114.626 260.879 134.832 272.241C152.447 282.283 169.772 293.113 185.248 306.277C187.404 308.208 189.559 310.171 191.667 312.135C189.366 310.365 187.098 308.578 184.846 306.776C149.808 281.188 110.814 261.652 72.3984 241.713Z" fill="#E2F5F8"/>
<path d="M111.249 261.669L86.8613 237.643L112.343 260.494L111.249 261.669Z" fill="#E2F5F8"/>
<path d="M101.966 256.857L79.8789 254.717L102.063 255.248L101.966 256.857Z" fill="#E2F5F8"/>
<path d="M128.059 270.617L93.5684 270.199L128.043 269.008L128.059 270.617Z" fill="#E2F5F8"/>
<path d="M133.159 273.481L112.117 240.604L134.494 272.58L133.159 273.481Z" fill="#E2F5F8"/>
<path d="M147.332 281.624L109.238 284.537L147.171 280.031L147.332 281.624Z" fill="#E2F5F8"/>
<path d="M159.526 289.268L138.42 249.6L160.942 288.48L159.526 289.268Z" fill="#E2F5F8"/>
<path d="M170.753 296.607L128.959 301.225L170.544 295.014L170.753 296.607Z" fill="#E2F5F8"/>
<path d="M180.341 303.687L164.398 260.51L181.837 303.107L180.341 303.687Z" fill="#E2F5F8"/>
<path d="M187.982 309.642L149.775 313.73L187.789 308.049L187.982 309.642Z" fill="#E2F5F8"/>
<path d="M305.882 337.594C310.853 337.787 316.113 337.127 319.62 332.975C321.406 330.851 322.258 327.89 321.567 325.041C320.151 319.183 313.845 317.59 308.681 315.901C303.726 314.275 298.048 309.834 299.624 304.539C300.316 302.19 302.262 300.629 304.498 300.049C308.134 299.116 311.689 300.468 315.196 301.53C327.149 305.167 339.793 305.826 351.858 303.38C354.673 302.801 357.247 301.192 358.808 298.617C362.926 291.858 356.974 285.228 350.941 283.281C344.925 281.333 338.394 282.251 332.602 279.113C330.704 278.083 329.337 276.087 329.272 273.834C329.176 269.875 333.004 268.298 336.27 267.848C352.614 265.611 370.422 275.25 385.094 266.19C387.121 264.935 388.633 262.843 388.906 260.332C389.63 253.75 382.423 251.031 376.793 250.097C371.146 249.164 365.5 248.214 359.853 247.281C356.733 246.766 353.193 245.994 352.035 242.244C351.472 240.458 351.762 238.51 352.55 236.869C354.303 233.264 357.714 231.526 360.915 229.724C372.819 222.997 383.421 213.712 391.931 202.559C393.861 200.033 394.81 196.718 394.215 193.467C392.912 186.306 385.544 185.179 379.801 186.161C370.632 187.706 362.025 192.469 355.606 199.55C352.598 202.881 350.04 206.695 346.678 209.624C346.646 209.656 346.614 209.688 346.582 209.704C340.839 214.661 332.554 207.838 335.144 200.387C335.24 200.097 335.353 199.824 335.45 199.534C337.477 194.111 340.26 188.736 338.828 182.54C338.136 179.547 336.157 176.972 333.407 176.103C328.934 174.719 325.54 178.468 323.143 182.105C316.708 191.825 312.429 203.219 310.724 215.112C310.097 219.537 309.791 224.124 307.169 227.857C306.204 229.241 304.885 230.351 303.34 230.915C296.359 233.425 291.355 224.075 292.401 216.93C293.366 210.3 297.34 204.684 298.997 198.23C300.026 194.191 300.123 189.653 297.581 186.032C296.648 184.712 295.377 183.65 293.913 183.151C289.264 181.542 285.629 185.437 283.248 189.299C277.231 199.067 274.496 211.185 275.606 223.029C276.137 228.63 277.489 234.423 274.802 239.605C273.579 241.97 271.392 243.676 268.834 243.757C263.783 243.902 261.45 238.43 261.434 233.715C261.418 228.485 263.38 223.416 261.756 218.073C261.032 215.691 259.423 213.647 257.203 212.891C252.007 211.121 248.323 217.123 246.505 222.257C240.537 238.993 236.982 257.114 238.88 275.154C242.854 312.73 271.472 336.21 305.85 337.561L305.882 337.594Z" fill="#46A4B7"/>
<path d="M247.148 302.4C289.843 266.738 334.05 231.929 378.755 198.811C336.061 234.488 291.838 269.281 247.148 302.4Z" fill="#E2F5F8"/>
<path d="M325.668 240.153C323.271 225.492 325.764 210.526 329.625 196.332C327.067 206.969 325.523 218.041 325.958 229C326.118 232.621 326.44 236.323 327.244 239.766L325.684 240.153H325.668Z" fill="#E2F5F8"/>
<path d="M316.611 247.202C330.639 252.657 345.954 256.391 361.075 254.572C349.718 256.423 338.087 254.846 327.003 252.062C323.287 251.112 319.636 250.018 316 248.682L316.611 247.186V247.202Z" fill="#E2F5F8"/>
<path d="M293.705 265.418C288.862 249.583 284.503 232.879 286.449 216.223C285.034 232.83 289.908 249.309 295.217 264.871L293.705 265.418Z" fill="#E2F5F8"/>
<path d="M285.613 271.695C301.475 279.629 318.092 287.659 335.949 289.43C322.452 288.689 309.582 283.733 297.163 278.696C293.013 276.942 288.927 275.123 284.873 273.128L285.613 271.695Z" fill="#E2F5F8"/>
<path d="M259.374 292.34C257.396 283.071 255.851 273.753 254.902 264.339C254.082 254.989 253.31 245.317 255.642 236.145C253.567 245.366 254.613 254.957 255.691 264.259C256.913 273.576 258.699 282.862 260.935 291.986L259.374 292.357V292.34Z" fill="#E2F5F8"/>
<path d="M253.89 296.83C267.644 307.113 282.749 317.268 300.011 320.1C286.916 318.555 274.947 312.166 263.815 305.44C260.099 303.122 256.447 300.725 252.908 298.101L253.89 296.83Z" fill="#E2F5F8"/>
<path d="M107.016 302.784V281.59L137.452 250.531C145.946 241.889 152.462 234.277 156.982 227.695C161.502 221.113 164.655 214.805 166.441 208.77C168.227 202.735 169.111 196.154 169.111 189.024C169.111 183.81 168.452 179.53 167.165 176.166C165.862 172.803 164.012 170.341 161.615 168.764C159.218 167.187 156.371 166.398 153.089 166.398C148.424 166.398 144.724 167.734 141.989 170.405C139.238 173.077 137.259 177.051 136.021 182.33C134.782 187.608 134.171 194.158 134.171 201.979C128.959 201.979 124.374 201.287 120.4 199.919C116.427 198.551 113.338 196.395 111.15 193.434C108.963 190.489 107.853 186.546 107.853 181.606C107.853 176.665 109.526 172.079 112.888 167.83C116.25 163.582 121.285 160.186 127.993 157.644C134.702 155.101 143.067 153.846 153.073 153.846C163.079 153.846 171.991 155.214 178.973 157.965C185.97 160.717 191.231 164.612 194.802 169.697C198.357 174.766 200.143 180.882 200.143 188.011C200.143 191.857 199.596 195.59 198.502 199.227C197.408 202.864 195.655 206.662 193.258 210.637C190.861 214.612 187.627 218.973 183.59 223.704C179.552 228.436 174.501 233.827 168.484 239.845C162.451 245.88 155.325 252.8 147.105 260.621L126.546 280.158H174.452C178.699 280.158 182.303 278.919 185.247 276.456C188.19 273.994 190.282 270.486 191.52 265.964L193.161 259.591H205.291L204.261 302.784H107H107.016Z" fill="#0E282D"/>
<path d="M224.433 304.425C219.768 304.425 215.795 303.218 212.513 300.821C209.231 298.423 207.574 294.142 207.574 287.962C207.574 281.783 209.215 277.341 212.513 275.008C215.795 272.674 219.784 271.516 224.433 271.516C229.082 271.516 232.895 272.674 236.257 275.008C239.619 277.341 241.292 281.654 241.292 287.962C241.292 294.271 239.619 298.423 236.257 300.821C232.895 303.218 228.954 304.425 224.433 304.425Z" fill="#0E282D"/>
<path d="M291.661 304.843C279.194 304.843 269.252 301.689 261.852 295.381C254.452 289.073 249.144 280.238 245.91 268.844C242.693 257.466 241.084 244.158 241.084 228.934C241.084 213.71 242.693 200.482 245.91 189.233C249.127 177.984 254.436 169.278 261.852 163.115C269.252 156.951 279.258 153.861 291.87 153.861C303.791 153.861 313.427 156.951 320.762 163.115C328.098 169.278 333.471 178.033 336.897 189.346C340.324 200.659 342.045 213.919 342.045 229.143C342.045 244.367 340.324 257.627 336.897 268.941C333.471 280.254 328.05 289.073 320.65 295.365C313.25 301.673 303.582 304.827 291.661 304.827V304.843ZM291.661 291.47C296.729 291.47 300.605 289.008 303.276 284.068C305.946 279.127 307.764 271.998 308.729 262.68C309.678 253.363 310.161 242.178 310.161 229.159C310.161 216.14 309.678 204.827 308.729 195.638C307.764 186.449 305.978 179.417 303.388 174.557C300.782 169.697 296.938 167.25 291.87 167.25C286.803 167.25 282.894 169.68 280.143 174.557C277.392 179.433 275.51 186.449 274.496 195.638C273.467 204.827 272.952 215.995 272.952 229.159C272.952 242.323 273.467 253.363 274.496 262.68C275.526 271.998 277.376 279.127 280.046 284.068C282.717 289.008 286.594 291.47 291.661 291.47Z" fill="#0E282D"/>
<path d="M311.545 323.897C318.8 319.262 324.511 312.053 330.753 306.292C337.139 300.402 344.636 295.091 353.258 294.013C340.952 286.337 325.492 283.907 311.432 287.431C297.372 290.955 284.873 300.37 277.618 312.922C275.864 315.947 274.384 319.359 274.851 322.819C275.221 325.539 276.475 328.162 279.098 329.304C280.738 330.029 282.572 330.189 284.358 330.27C292.884 330.656 301.78 329.288 309.357 325.185C310.097 324.782 310.837 324.348 311.545 323.897Z" fill="#6CCCDF"/>
<path d="M339.23 292.871C319.958 302.318 300.043 310.38 281.752 321.709C289.747 314.403 299.399 309.173 309.067 304.442C318.816 299.823 328.854 295.816 339.23 292.871Z" fill="#E2F5F8"/>
<path d="M319.861 299.968L332.666 290.521L320.891 301.207L319.861 299.968Z" fill="#E2F5F8"/>
<path d="M325.075 297.764L335.37 298.649L325.059 299.373L325.075 297.764Z" fill="#E2F5F8"/>
<path d="M312.638 303.316L328.532 305.392L312.51 304.926L312.638 303.316Z" fill="#E2F5F8"/>
<path d="M309.164 304.924L320.875 291.084L310.435 305.922L309.164 304.924Z" fill="#E2F5F8"/>
<path d="M303.469 307.822L320.827 311.54L303.195 309.399L303.469 307.822Z" fill="#E2F5F8"/>
<path d="M296.391 311.49L308.408 294.416L297.742 312.359L296.391 311.49Z" fill="#E2F5F8"/>
<path d="M292.177 314.018L311.159 318.636L291.871 315.595L292.177 314.018Z" fill="#E2F5F8"/>
<path d="M286.225 317.638L296.038 298.648L287.672 318.33L286.225 317.638Z" fill="#E2F5F8"/>
<path d="M283.778 319.504L301.12 323.768L283.473 321.081L283.778 319.504Z" fill="#E2F5F8"/>
<path d="M309.647 338.896C318.205 337.995 326.522 334.101 334.694 331.719C343.043 329.289 352.116 327.905 360.32 330.786C352.727 318.427 339.986 309.35 325.83 306.212C311.674 303.074 296.294 305.922 284.197 313.921C281.285 315.852 278.422 318.233 277.296 321.532C276.411 324.123 276.363 327.036 278.197 329.241C279.339 330.625 280.915 331.59 282.476 332.459C289.94 336.611 298.498 339.363 307.105 339.074C307.957 339.041 308.794 338.993 309.647 338.896Z" fill="#6CCCDF"/>
<path d="M348.272 323.512C326.812 323.351 305.384 321.661 283.973 323.641C294.381 320.679 305.352 320.293 316.114 320.39C326.892 320.615 337.671 321.5 348.272 323.512Z" fill="#E2F5F8"/>
<path d="M327.777 321.21L343.446 318.475L328.131 322.771L327.777 321.21Z" fill="#E2F5F8"/>
<path d="M333.424 321.564L342.223 326.956L332.684 322.997L333.424 321.564Z" fill="#E2F5F8"/>
<path d="M319.815 320.969L333.103 329.932L318.979 322.353L319.815 320.969Z" fill="#E2F5F8"/>
<path d="M315.986 320.872L332.636 313.711L316.678 322.321L315.986 320.872Z" fill="#E2F5F8"/>
<path d="M309.6 320.904L323.466 331.976L308.65 322.208L309.6 320.904Z" fill="#E2F5F8"/>
<path d="M301.619 321.018L319.99 311.137L302.44 322.402L301.619 321.018Z" fill="#E2F5F8"/>
<path d="M296.729 321.404L311.642 334.021L295.748 322.676L296.729 321.404Z" fill="#E2F5F8"/>
<path d="M289.779 321.983L307.041 309.383L290.777 323.255L289.779 321.983Z" fill="#E2F5F8"/>
<path d="M286.755 322.562L300.38 334.117L285.773 323.85L286.755 322.562Z" fill="#E2F5F8"/>
<path d="M133.544 308.32C126.804 313.679 121.865 321.435 116.251 327.824C110.508 334.342 103.591 340.393 95.1289 342.356C108.159 348.713 123.78 349.533 137.421 344.593C151.047 339.636 162.501 328.983 168.437 315.739C169.869 312.552 170.995 309.012 170.174 305.616C169.531 302.961 168.002 300.467 165.284 299.598C163.579 299.05 161.745 299.083 159.943 299.179C151.417 299.678 142.714 301.963 135.603 306.807C134.896 307.29 134.22 307.789 133.56 308.32H133.544Z" fill="#6CCCDF"/>
<path d="M109.205 342.035C127.399 330.658 146.382 320.568 163.402 307.42C156.211 315.498 147.154 321.71 138.017 327.407C128.799 333.007 119.227 338.028 109.205 342.035Z" fill="#E2F5F8"/>
<path d="M127.738 332.974L115.994 343.692L126.595 331.848L127.738 332.974Z" fill="#E2F5F8"/>
<path d="M122.798 335.711L112.471 335.888L122.638 334.102L122.798 335.711Z" fill="#E2F5F8"/>
<path d="M134.591 328.902L118.568 328.484L134.559 327.293L134.591 328.902Z" fill="#E2F5F8"/>
<path d="M137.871 326.939L127.656 341.905L136.504 326.086L137.871 326.939Z" fill="#E2F5F8"/>
<path d="M143.245 323.479L125.598 321.564L143.341 321.87L143.245 323.479Z" fill="#E2F5F8"/>
<path d="M149.904 319.104L139.705 337.304L148.472 318.363L149.904 319.104Z" fill="#E2F5F8"/>
<path d="M153.831 316.141L134.494 313.502L153.991 314.548L153.831 316.141Z" fill="#E2F5F8"/>
<path d="M159.396 311.926L151.578 331.816L157.868 311.395L159.396 311.926Z" fill="#E2F5F8"/>
<path d="M161.633 309.817L143.938 307.371L161.778 308.208L161.633 309.817Z" fill="#E2F5F8"/>
<path d="M133.898 293.192C125.468 294.979 117.602 299.71 109.719 302.912C101.676 306.179 92.7796 308.513 84.334 306.485C93.1496 317.991 106.759 325.716 121.173 327.373C135.571 329.031 150.58 324.622 161.792 315.416C164.495 313.196 167.085 310.54 167.873 307.129C168.484 304.457 168.227 301.561 166.184 299.565C164.897 298.31 163.24 297.521 161.599 296.813C153.749 293.45 144.949 291.599 136.407 292.774C135.571 292.887 134.734 293.031 133.898 293.209V293.192Z" fill="#6CCCDF"/>
<path d="M97.0586 312.487C118.422 310.428 139.898 309.897 161.004 305.729C150.95 309.752 140.075 311.264 129.361 312.278C118.615 313.163 107.805 313.389 97.0586 312.504V312.487Z" fill="#E2F5F8"/>
<path d="M117.681 312.666L102.383 316.994L117.167 311.137L117.681 312.666Z" fill="#E2F5F8"/>
<path d="M112.035 312.891L102.721 308.449L112.614 311.394L112.035 312.891Z" fill="#E2F5F8"/>
<path d="M125.629 312.085L111.488 304.537L126.32 310.62L125.629 312.085Z" fill="#E2F5F8"/>
<path d="M129.457 311.78L113.611 320.615L128.604 310.412L129.457 311.78Z" fill="#E2F5F8"/>
<path d="M135.796 311.087L120.867 301.496L136.616 309.703L135.796 311.087Z" fill="#E2F5F8"/>
<path d="M143.71 310.153L126.465 321.885L142.761 308.85L143.71 310.153Z" fill="#E2F5F8"/>
<path d="M148.553 309.269L132.418 298.262L149.406 307.901L148.553 309.269Z" fill="#E2F5F8"/>
<path d="M155.407 307.965L139.545 322.288L154.28 306.807L155.407 307.965Z" fill="#E2F5F8"/>
<path d="M158.349 307.08L143.613 296.99L159.185 305.713L158.349 307.08Z" fill="#E2F5F8"/>
</g>
<defs>
<clipPath id="clip0_187_2862">
<rect width="436" height="372" fill="white" transform="translate(0 0.964844)"/>
</clipPath>
</defs>
</svg>
