<svg width="427" height="355" viewBox="0 0 427 355" fill="none" xmlns="http://www.w3.org/2000/svg">
<path d="M215.167 354.966C296.54 354.966 362.506 341.839 362.506 325.645C362.506 309.452 296.54 296.324 215.167 296.324C133.793 296.324 67.8268 309.452 67.8268 325.645C67.8268 341.839 133.793 354.966 215.167 354.966Z" fill="#E2F5F8"/>
<path d="M174.885 251.618C149.5 241.094 125.788 225.967 104.939 206.736C63.2903 168.322 33.2239 113.687 20.0488 52.4385" stroke="#6CCCDF" stroke-miterlimit="10"/>
<path d="M22.3814 62.4805C22.3814 62.4805 6.391 48.158 15.7696 21.5566C15.7696 21.5566 30.7304 33.9963 22.3814 62.4805Z" fill="#6CCCDF"/>
<path d="M27.4487 80.6326C27.4487 80.6326 6.79316 81.0993 0.664062 60.9834C0.664062 60.9834 18.8744 62.48 27.4487 80.6326Z" fill="#6CCCDF"/>
<path d="M30.3122 89.3882C30.3122 89.3882 41.1065 70.8494 37.2456 48.0781C37.2456 48.0781 25.8561 66.971 30.3122 89.3882Z" fill="#6CCCDF"/>
<path d="M36.5378 105.995C36.5378 105.995 16.1718 107.283 8.85228 90.8682C8.85228 90.8682 27.1752 90.9808 36.5378 105.995Z" fill="#6CCCDF"/>
<path d="M39.9 113.961C39.9 113.961 34.7039 95.6315 45.6269 71.9912C45.6269 71.9912 50.1473 95.3579 39.9 113.961Z" fill="#6CCCDF"/>
<path d="M46.4795 127.994C46.4795 127.994 25.1322 129.201 17.3783 114.138C17.3783 114.138 34.7682 111.901 46.4795 127.994Z" fill="#6CCCDF"/>
<path d="M51.9651 138.406C51.9651 138.406 46.5599 120.205 54.346 98.9951C54.346 98.9951 62.0838 115.297 51.9651 138.406Z" fill="#6CCCDF"/>
<path d="M57.3221 147.708C57.3221 147.708 38.1304 150.653 30.1352 137.215C30.1352 137.215 48.2008 136.153 57.3221 147.708Z" fill="#6CCCDF"/>
<path d="M62.9042 156.108C62.9042 156.108 67.7142 140.836 63.7407 121.444C63.7407 121.444 55.826 141.271 62.9042 156.108Z" fill="#6CCCDF"/>
<path d="M68.1968 164.493C68.1968 164.493 48.4904 167.437 40.4469 155.046C40.4469 155.046 56.2764 151.667 68.1968 164.493Z" fill="#6CCCDF"/>
<path d="M73.8754 172.603C73.8754 172.603 78.9911 154.885 73.1676 139.919C73.1676 139.919 66.7168 158.023 73.8754 172.603Z" fill="#6CCCDF"/>
<path d="M81.6454 182.13C81.6454 182.13 64.4324 184.705 54.6195 174.229C54.6195 174.229 72.3955 171.557 81.6454 182.13Z" fill="#6CCCDF"/>
<path d="M87.0667 188.455C87.0667 188.455 79.538 176.611 83.1737 159.633C83.1737 159.633 90.3806 170.656 87.0667 188.455Z" fill="#6CCCDF"/>
<path d="M95.7858 197.853C95.7858 197.853 79.2485 201.136 68.0037 190.644C68.0037 190.644 83.045 187.65 95.7858 197.853Z" fill="#6CCCDF"/>
<path d="M99.6949 201.763C99.6949 201.763 92.4879 187.987 94.3219 174.276C94.3219 174.276 103.749 181.711 99.6949 201.763Z" fill="#6CCCDF"/>
<path d="M108.768 210.196C108.929 210.292 92.1823 213.913 83.0932 206.719C83.0932 206.719 95.641 201.924 108.768 210.196Z" fill="#6CCCDF"/>
<path d="M113.047 213.881C113.047 213.881 105.245 202.358 108.124 185.123C108.124 185.123 117.246 196.533 112.757 215.039" fill="#6CCCDF"/>
<path d="M120.383 219.819C120.383 219.819 105.534 225.387 95.6088 217.534C95.6088 217.534 109.427 211.788 120.383 219.819Z" fill="#6CCCDF"/>
<path d="M125.144 223.44C125.144 223.44 118.42 216.101 120.302 198.705C120.302 198.705 128.265 207.765 125.144 223.44Z" fill="#6CCCDF"/>
<path d="M137.209 231.792C137.209 231.792 118.581 237.07 109.974 230.408C109.974 230.408 123.23 223.391 137.209 231.792Z" fill="#6CCCDF"/>
<path d="M142.132 234.898C142.132 234.898 131.676 224.663 134.024 207.766C134.024 207.766 144.304 217.083 142.132 234.898Z" fill="#6CCCDF"/>
<path d="M60.1855 127.822L57.9655 125.199L58.7377 124.556C59.5903 123.831 60.2659 123.075 60.7486 122.303C61.2312 121.53 61.4081 120.661 61.2633 119.728C61.1185 118.778 60.5394 117.716 59.526 116.509L32.5483 84.6294C31.5026 83.3903 30.5374 82.6179 29.6365 82.296C28.7518 81.9902 27.8991 81.9902 27.0787 82.3282C26.2583 82.6661 25.4539 83.1489 24.6979 83.7926L23.6683 84.6616L21.4483 82.0385L34.4626 71.015L76.6585 98.9037L56.0673 52.7175L68.9529 41.8066L71.1729 44.4298L70.0789 45.347C69.355 45.9586 68.7759 46.6345 68.3255 47.3747C67.8911 48.115 67.7624 48.9518 67.9394 49.9013C68.1163 50.8508 68.7437 51.9612 69.8376 53.2486L96.5419 84.8065C97.5875 86.0456 98.5688 86.8503 99.4697 87.2204C100.371 87.5905 101.239 87.6227 102.06 87.2848C102.88 86.9468 103.701 86.4479 104.505 85.7559L105.47 84.9352L107.69 87.5583L92.1823 100.69L89.9623 98.0669L90.5414 97.5841C91.4423 96.8278 92.0697 96.0875 92.4558 95.3633C92.8419 94.6391 92.9062 93.8345 92.6488 92.9333C92.3914 92.0321 91.7641 90.97 90.7023 89.7309L61.939 55.743L84.6054 107.111L81.1467 110.04L34.1569 79.4798L62.7112 113.21C63.8372 114.53 64.8346 115.399 65.7194 115.785C66.6042 116.171 67.4246 116.22 68.2129 115.93C69.0011 115.64 69.7733 115.157 70.5294 114.514L71.0442 114.079L73.2641 116.702L60.1855 127.774V127.822Z" fill="#0E282D"/>
<path d="M109.894 87.8966L108.43 84.7746L109.653 84.1952C110.618 83.7446 111.406 83.2136 112.017 82.6182C112.629 82.0227 112.983 81.2503 113.063 80.3169C113.144 79.3835 112.854 78.2087 112.194 76.7765L94.531 39.3126C93.7749 37.6872 92.9867 36.609 92.1984 36.0457C91.4101 35.4825 90.5897 35.2572 89.7371 35.3538C88.8845 35.4503 87.9675 35.7239 87.0184 36.1745L85.7958 36.7538L84.3319 33.6318L117.6 17.9414L124.131 31.0248L120.56 32.7145L118.677 29.7052C118.098 28.6109 117.39 27.6775 116.522 26.9051C115.669 26.1326 114.688 25.6498 113.61 25.4406C112.532 25.2475 111.326 25.4406 110.007 26.0682L99.4536 31.0409L109.025 51.3339L124.517 44.0277L126.238 47.6808L110.747 54.9869L121.525 77.8547L133.686 72.1257C135.102 71.4498 136.099 70.6291 136.663 69.6635C137.226 68.6979 137.499 67.6036 137.499 66.4288C137.499 65.2541 137.322 64.0632 136.936 62.8885L135.81 59.5251L139.462 57.8031L145.237 71.2406L109.91 87.9127L109.894 87.8966Z" fill="#0E282D"/>
<path d="M147.714 69.8407L146.99 66.4774L148.39 66.1716C149.436 65.9463 150.32 65.6083 151.044 65.1256C151.768 64.6589 152.267 63.9508 152.524 63.0013C152.782 62.0518 152.733 60.7644 152.379 59.123L143.692 18.698C143.355 17.1048 142.856 15.9622 142.229 15.2702C141.601 14.5782 140.829 14.1759 139.96 14.0794C139.092 13.9828 138.126 14.0472 137.081 14.2725L135.842 14.546L135.118 11.1827L156.884 6.49967C161.758 5.45364 166.166 5.71113 170.107 7.27212C174.048 8.83312 177.411 11.585 180.178 15.5438C182.944 19.5026 185.004 24.604 186.339 30.848C187.626 36.8184 187.867 42.1934 187.095 46.9729C186.323 51.7525 184.473 55.6952 181.561 58.8172C178.649 61.9392 174.628 64.0473 169.48 65.1577L147.714 69.8407ZM166.954 61.4081C170.622 60.6196 173.437 58.9942 175.4 56.5481C177.362 54.0859 178.553 50.8513 178.987 46.8442C179.421 42.821 179.051 38.1058 177.877 32.6826C176.703 27.2593 175.126 22.7855 173.115 19.2773C171.105 15.753 168.675 13.2908 165.844 11.8586C163.013 10.4263 159.795 10.1044 156.192 10.8769L150.449 12.116L161.308 62.6312L166.97 61.4081H166.954Z" fill="#0E282D"/>
<path d="M196.956 60.7484L196.86 57.3046L198.291 57.2724C199.305 57.2402 200.206 57.0793 201.01 56.7735C201.814 56.4677 202.442 55.8884 202.892 55.0033C203.343 54.1182 203.552 52.863 203.504 51.2537L202.41 10.0884C202.361 8.35043 202.088 7.06301 201.589 6.24228C201.09 5.42155 200.431 4.8583 199.61 4.56863C198.79 4.27896 197.873 4.15022 196.876 4.18241L195.444 4.21459L195.347 0.770745L216.92 0.191406L217.017 3.63525L215.504 3.68353C214.491 3.71572 213.59 3.89274 212.786 4.21459C211.981 4.55254 211.37 5.13188 210.936 5.9848C210.501 6.83771 210.324 8.12513 210.373 9.86315L211.467 50.9318C211.515 52.6055 211.772 53.8607 212.239 54.6976C212.705 55.5183 213.365 56.0815 214.217 56.3712C215.07 56.6609 215.971 56.7896 216.92 56.7574L218.432 56.7091L218.529 60.153L196.956 60.7323V60.7484Z" fill="#0E282D"/>
<path d="M229.21 60.6838L229.677 57.2722L231.173 57.4814C232.219 57.6262 233.232 57.6423 234.181 57.5136C235.13 57.3848 235.935 56.9664 236.61 56.2422C237.27 55.5181 237.72 54.3433 237.946 52.734L244.348 6.37082L237.688 5.45353C235.693 5.17995 234.181 5.67883 233.152 6.95016C232.122 8.22148 231.382 9.76639 230.899 11.5527L230.079 14.9965L226.25 14.4655L228.583 0.0302734L269.267 5.64664L267.594 20.1784L263.765 19.6473L263.829 16.0908C263.91 14.2402 263.636 12.5665 262.993 11.0538C262.349 9.55718 260.982 8.65599 258.875 8.36632L252.215 7.44903L245.876 53.3938C245.635 55.1158 245.715 56.4354 246.134 57.3687C246.536 58.3021 247.179 58.978 248.064 59.3803C248.949 59.7827 249.93 60.0562 251.04 60.2172L252.536 60.4264L252.07 63.838L229.194 60.6838H229.21Z" fill="#0E282D"/>
<path d="M255.979 63.3071L257.137 60.0564L258.328 60.4748C259.228 60.7966 260.001 60.8932 260.676 60.7645C261.336 60.6518 262.076 60.2173 262.864 59.4931C263.652 58.769 264.618 57.6425 265.744 56.1458L297.322 14.3047L303.258 16.4128L301.006 71.3213C300.974 72.4317 301.054 73.3329 301.263 73.9927C301.473 74.6525 301.859 75.2318 302.406 75.6824C302.953 76.1491 303.677 76.5354 304.577 76.8572L305.285 77.1147L304.143 80.3654L284.903 73.5421L286.045 70.2914L287.622 70.8546C288.989 71.3374 290.115 71.4179 290.984 71.0638C291.853 70.7098 292.464 70.0178 292.85 68.9557C292.979 68.5855 293.075 68.1832 293.156 67.7326C293.22 67.282 293.3 66.7671 293.381 66.2038C293.461 65.6406 293.51 65.0934 293.51 64.5623L294.008 55.3734L276.506 49.1777L271.455 56.1297C271.149 56.4999 270.843 56.9344 270.554 57.4172C270.264 57.8999 269.975 58.3666 269.701 58.8172C269.428 59.2517 269.202 59.7184 269.041 60.1851C268.655 61.2955 268.671 62.2933 269.138 63.2106C269.588 64.1117 270.586 64.8359 272.114 65.3831L273.851 65.9946L272.709 69.2453L256.011 63.3232L255.979 63.3071ZM279.208 45.7821L294.089 51.0605L295.118 34.839C295.263 33.101 295.36 31.4596 295.44 29.9147C295.504 28.3698 295.617 26.9375 295.762 25.6179C295.907 24.2983 296.019 23.0913 296.116 21.997C295.553 22.9304 294.909 23.9282 294.201 25.0225C293.494 26.1007 292.737 27.2111 291.965 28.3215C291.177 29.448 290.308 30.6227 289.327 31.8941L279.241 45.7821H279.208Z" fill="#0E282D"/>
<path d="M306.492 83.0688L308.277 80.1238L309.564 80.9124C310.481 81.4595 311.398 81.8618 312.315 82.1354C313.232 82.409 314.149 82.3285 315.05 81.9262C315.951 81.5239 316.819 80.6227 317.656 79.2387L341.851 39.1839L336.092 35.7078C334.37 34.6618 332.778 34.5331 331.346 35.2894C329.898 36.0458 328.611 37.1723 327.453 38.6367L325.346 41.4851L322.032 39.4896L329.882 27.1465L365.032 48.405L357.761 61.0861L354.447 59.0906L355.911 55.8559C356.715 54.1823 357.133 52.5408 357.133 50.8994C357.133 49.274 356.232 47.9061 354.415 46.7957L348.655 43.3197L324.67 83.0205C323.769 84.501 323.319 85.7563 323.335 86.7701C323.335 87.784 323.673 88.653 324.316 89.3771C324.959 90.1013 325.764 90.745 326.729 91.3244L328.016 92.1129L326.23 95.0579L306.46 83.101L306.492 83.0688Z" fill="#0E282D"/>
<path d="M335.191 100.674L337.539 98.1636L338.521 99.0809C339.293 99.8051 340.081 100.352 340.869 100.69C341.658 101.044 342.494 101.076 343.395 100.819C344.296 100.561 345.277 99.8372 346.355 98.6947L374.62 68.4242C375.842 67.1207 376.566 65.9942 376.791 65.0447C377.017 64.1113 376.92 63.2584 376.518 62.5021C376.116 61.7457 375.521 61.0054 374.748 60.2813L373.767 59.364L376.116 56.8535L402.997 81.9743L393.264 92.8852L390.385 90.1816L392.492 87.3171C393.297 86.3837 393.892 85.3699 394.294 84.2917C394.696 83.2134 394.777 82.1191 394.567 81.0409C394.358 79.9627 393.715 78.9167 392.653 77.9189L384.127 69.9369L368.812 86.3354L381.328 98.0349L378.577 100.98L366.061 89.2804L348.8 107.755L358.613 116.928C359.755 118.006 360.881 118.617 362.008 118.778C363.118 118.939 364.228 118.811 365.321 118.376C366.415 117.942 367.445 117.33 368.41 116.542L371.129 114.256L374.073 117.008L363.729 127.34L335.191 100.658V100.674Z" fill="#0E282D"/>
<path d="M302.117 225.833C357.222 197.045 398.307 142.718 411.014 81.8321" stroke="#B3E8F1" stroke-miterlimit="10"/>
<path d="M410.402 84.6266C410.402 84.6266 421.811 59.1522 411.246 57.7011C400.68 56.2661 410.402 84.6266 410.402 84.6266Z" fill="#B3E8F1"/>
<path d="M405.433 102.786C405.433 102.786 431.601 88.3998 425.209 80.1318C418.817 71.8639 405.433 102.786 405.433 102.786Z" fill="#B3E8F1"/>
<path d="M405.434 102.788C405.434 102.788 391.122 79.5256 399.753 73.2732C408.385 67.0368 405.434 102.788 405.434 102.788Z" fill="#B3E8F1"/>
<path d="M401.211 114.625C401.211 114.625 426.249 108.111 423.788 99.7482C421.326 91.3857 401.211 114.625 401.211 114.625Z" fill="#B3E8F1"/>
<path d="M401.213 114.627C401.213 114.627 383.019 93.6985 391.544 87.2016C400.07 80.7046 401.213 114.627 401.213 114.627Z" fill="#B3E8F1"/>
<path d="M394.319 130.314C394.319 130.314 424.321 121.884 419.866 113.431C415.411 104.978 394.319 130.314 394.319 130.314Z" fill="#B3E8F1"/>
<path d="M394.321 130.315C394.321 130.315 374.778 100.928 383.755 97.7446C392.732 94.5611 394.321 130.315 394.321 130.315Z" fill="#B3E8F1"/>
<path d="M387.002 144.011C387.002 144.011 418.426 137.603 414.259 128.112C410.091 118.621 387.002 144.011 387.002 144.011Z" fill="#B3E8F1"/>
<path d="M387.003 144.012C387.003 144.012 366.677 116.679 377.102 111.831C387.528 106.983 387.003 144.012 387.003 144.012Z" fill="#B3E8F1"/>
<path d="M378.147 157.986C378.147 157.986 408.917 154.182 406.541 143.955C404.165 133.744 378.147 157.986 378.147 157.986Z" fill="#B3E8F1"/>
<path d="M378.149 157.987C378.149 157.987 361.38 128.39 370.671 124.363C379.963 120.335 378.149 157.987 378.149 157.987Z" fill="#B3E8F1"/>
<path d="M368.752 170.624C368.752 170.624 402.768 167.527 400.574 160.492C396.848 148.552 368.752 170.624 368.752 170.624Z" fill="#B3E8F1"/>
<path d="M368.754 170.626C368.754 170.626 374.634 135.411 363.738 135.367C352.842 135.323 368.754 170.626 368.754 170.626Z" fill="#B3E8F1"/>
<path d="M359.889 181.008C359.889 181.008 395.186 184.258 392.544 173.235C389.901 162.212 359.889 181.008 359.889 181.008Z" fill="#B3E8F1"/>
<path d="M359.891 181.01C359.891 181.01 342.091 151.448 353.973 147.463C365.838 143.479 359.891 181.01 359.891 181.01Z" fill="#B3E8F1"/>
<path d="M350.002 191.201C350.002 191.201 381.323 198.923 382.204 186.812C383.086 174.7 350.002 191.201 350.002 191.201Z" fill="#B3E8F1"/>
<path d="M350.004 191.203C350.004 191.203 354.569 160.265 345.065 159.939C335.562 159.614 350.004 191.203 350.004 191.203Z" fill="#B3E8F1"/>
<path d="M337.579 202.271C337.579 202.271 368.243 209.33 368.139 199.009C368.035 188.687 337.579 202.271 337.579 202.271Z" fill="#B3E8F1"/>
<path d="M337.58 202.272C337.58 202.272 325.598 171.318 335.352 168.575C345.105 165.833 337.58 202.272 337.58 202.272Z" fill="#B3E8F1"/>
<path d="M103.636 68.6919C100.966 81.0672 101.609 93.346 108.671 103.388C115.733 113.43 125.884 120.752 135.392 128.525C157.431 146.549 176.976 168.097 189.942 193.443C202.908 218.789 208.973 248.142 204.002 276.176C201.927 287.875 197.358 300.09 187.433 306.623C174.821 314.943 157.189 311.226 145.269 301.94C122.442 284.158 109.508 251.361 102.124 224.405C93.2601 192.075 90.1875 158.151 93.0349 124.743C94.6436 105.753 98.1827 86.925 103.652 68.6758L103.636 68.6919Z" fill="#46A4B7"/>
<path d="M103.926 110.727C120.238 155.432 137.644 204.66 155.709 248.384C160.712 260.309 166.343 273.118 172.343 284.528C173.453 286.411 175.915 290.563 177.008 292.446C158.75 265.201 147.634 233.917 135.504 203.646C124.099 172.989 113.304 142.075 103.926 110.727Z" fill="#E2F5F8"/>
<path d="M118.195 154.853L101.287 129.442L119.514 153.936L118.195 154.853Z" fill="#E2F5F8"/>
<path d="M121.814 165.056L122.506 128.573L123.423 165.056H121.814Z" fill="#E2F5F8"/>
<path d="M129.504 186.233L102.51 157.17L130.662 185.107L129.504 186.233Z" fill="#E2F5F8"/>
<path d="M134.957 200.91L137.515 145.809L136.566 200.958L134.957 200.91Z" fill="#E2F5F8"/>
<path d="M141.601 218.097L107.481 188.342L142.631 216.874L141.601 218.097Z" fill="#E2F5F8"/>
<path d="M146.894 231.438L153.988 168.129L148.486 231.599L146.894 231.438Z" fill="#E2F5F8"/>
<path d="M155.355 251.651L112.404 218.629L156.305 250.364L155.355 251.651Z" fill="#E2F5F8"/>
<path d="M163.544 269.578L176.156 198.062L165.136 269.835L163.544 269.578Z" fill="#E2F5F8"/>
<path d="M170.22 282.71L123.037 253.229L171.056 281.326L170.22 282.71Z" fill="#E2F5F8"/>
<path d="M120.334 294.457C105.422 283.418 94.2253 267.116 81.6293 253.791C68.7759 240.176 53.429 227.672 35.0578 224.1C62.6307 209.423 96.204 206.478 125.916 216.102C155.629 225.725 181.094 247.804 194.849 275.87C198.163 282.613 200.865 290.177 199.353 297.547C198.179 303.324 195.074 308.78 189.283 310.872C185.647 312.191 181.69 312.256 177.829 312.175C159.442 311.741 140.539 307.492 124.855 297.579C123.31 296.598 121.814 295.568 120.334 294.489V294.457Z" fill="#6CCCDF"/>
<path d="M65.3977 223.713C86.8093 232.58 107.626 242.879 127.831 254.241C145.446 264.283 162.772 275.113 178.247 288.277C180.403 290.208 182.558 292.171 184.666 294.135C182.365 292.365 180.097 290.578 177.845 288.776C142.808 263.188 103.813 243.652 65.3977 223.713Z" fill="#E2F5F8"/>
<path d="M104.247 243.669L79.8598 219.643L105.341 242.494L104.247 243.669Z" fill="#E2F5F8"/>
<path d="M94.9654 238.857L72.8781 236.717L95.0619 237.248L94.9654 238.857Z" fill="#E2F5F8"/>
<path d="M121.058 252.617L86.568 252.199L121.042 251.008L121.058 252.617Z" fill="#E2F5F8"/>
<path d="M126.158 255.481L105.116 222.604L127.493 254.58L126.158 255.481Z" fill="#E2F5F8"/>
<path d="M140.33 263.624L102.237 266.537L140.169 262.031L140.33 263.624Z" fill="#E2F5F8"/>
<path d="M152.524 271.268L131.418 231.6L153.94 270.48L152.524 271.268Z" fill="#E2F5F8"/>
<path d="M163.753 278.607L121.959 283.225L163.544 277.014L163.753 278.607Z" fill="#E2F5F8"/>
<path d="M173.341 285.687L157.399 242.51L174.837 285.107L173.341 285.687Z" fill="#E2F5F8"/>
<path d="M180.982 291.642L142.776 295.73L180.789 290.049L180.982 291.642Z" fill="#E2F5F8"/>
<path d="M298.883 319.595C303.853 319.788 309.114 319.128 312.621 314.976C314.406 312.852 315.259 309.891 314.567 307.042C313.152 301.184 306.846 299.591 301.682 297.902C296.727 296.276 291.048 291.835 292.625 286.54C293.317 284.19 295.263 282.63 297.499 282.05C301.135 281.117 304.69 282.469 308.197 283.531C320.149 287.168 332.794 287.827 344.859 285.381C347.674 284.802 350.248 283.193 351.808 280.618C355.927 273.859 349.975 267.229 343.942 265.281C337.925 263.334 331.394 264.252 325.603 261.113C323.705 260.084 322.337 258.088 322.273 255.835C322.176 251.876 326.005 250.299 329.271 249.849C345.615 247.612 363.423 257.251 378.094 248.191C380.121 246.936 381.633 244.844 381.907 242.333C382.631 235.751 375.424 233.032 369.794 232.098C364.147 231.165 358.501 230.215 352.854 229.282C349.733 228.767 346.194 227.995 345.036 224.245C344.473 222.459 344.762 220.511 345.551 218.87C347.304 215.265 350.715 213.527 353.916 211.725C365.82 204.998 376.421 195.713 384.931 184.56C386.862 182.034 387.811 178.719 387.216 175.468C385.913 168.307 378.545 167.18 372.802 168.162C363.632 169.707 355.026 174.47 348.607 181.551C345.599 184.882 343.041 188.696 339.679 191.625C339.647 191.657 339.615 191.689 339.582 191.705C333.839 196.662 325.555 189.839 328.145 182.388C328.241 182.098 328.354 181.825 328.45 181.535C330.477 176.112 333.26 170.737 331.829 164.541C331.137 161.548 329.158 158.973 326.407 158.104C321.935 156.72 318.541 160.469 316.144 164.106C309.709 173.826 305.43 185.22 303.725 197.113C303.097 201.538 302.792 206.125 300.17 209.858C299.204 211.242 297.885 212.352 296.341 212.916C289.359 215.426 284.356 206.076 285.402 198.931C286.367 192.301 290.34 186.685 291.997 180.231C293.027 176.192 293.123 171.654 290.582 168.033C289.649 166.713 288.378 165.651 286.914 165.152C282.265 163.543 278.629 167.438 276.248 171.3C270.232 181.068 267.497 193.186 268.607 205.03C269.138 210.631 270.489 216.424 267.803 221.606C266.58 223.971 264.392 225.677 261.835 225.758C256.783 225.903 254.451 220.431 254.435 215.716C254.418 210.486 256.381 205.416 254.756 200.074C254.032 197.692 252.424 195.648 250.204 194.892C245.008 193.122 241.324 199.124 239.506 204.258C233.538 220.994 229.982 239.115 231.881 257.155C235.854 294.731 264.473 318.211 298.85 319.562L298.883 319.595Z" fill="#46A4B7"/>
<path d="M240.149 284.399C282.844 248.737 327.051 213.928 371.756 180.81C329.062 216.487 284.839 251.28 240.149 284.399Z" fill="#E2F5F8"/>
<path d="M318.669 222.153C316.273 207.492 318.766 192.526 322.627 178.332C320.069 188.969 318.525 200.041 318.959 211C319.12 214.621 319.442 218.323 320.246 221.766L318.686 222.153H318.669Z" fill="#E2F5F8"/>
<path d="M309.613 229.202C323.64 234.657 338.955 238.391 354.077 236.572C342.719 238.423 331.089 236.846 320.005 234.062C316.289 233.112 312.637 232.018 309.001 230.682L309.613 229.186V229.202Z" fill="#E2F5F8"/>
<path d="M286.705 247.418C281.863 231.583 277.503 214.879 279.45 198.223C278.034 214.83 282.908 231.309 288.217 246.871L286.705 247.418Z" fill="#E2F5F8"/>
<path d="M278.613 253.695C294.475 261.629 311.093 269.659 328.949 271.43C315.452 270.689 302.583 265.733 290.164 260.696C286.013 258.942 281.927 257.123 277.873 255.128L278.613 253.695Z" fill="#E2F5F8"/>
<path d="M252.375 274.34C250.397 265.071 248.852 255.753 247.903 246.339C247.083 236.989 246.311 227.317 248.643 218.145C246.568 227.366 247.614 236.957 248.692 246.259C249.914 255.576 251.7 264.862 253.936 273.986L252.375 274.357V274.34Z" fill="#E2F5F8"/>
<path d="M246.89 278.83C260.644 289.113 275.75 299.268 293.011 302.1C279.916 300.555 267.948 294.166 256.815 287.44C253.099 285.122 249.448 282.725 245.909 280.101L246.89 278.83Z" fill="#E2F5F8"/>
<path d="M100.017 284.786V263.592L130.453 232.533C138.947 223.891 145.462 216.279 149.982 209.697C154.503 203.115 157.656 196.807 159.442 190.772C161.227 184.737 162.112 178.155 162.112 171.026C162.112 165.812 161.452 161.532 160.165 158.168C158.862 154.805 157.012 152.343 154.616 150.766C152.219 149.189 149.371 148.4 146.089 148.4C141.424 148.4 137.724 149.736 134.99 152.407C132.239 155.078 130.26 159.053 129.021 164.332C127.783 169.61 127.171 176.16 127.171 183.981C121.959 183.981 117.374 183.289 113.401 181.921C109.427 180.553 106.339 178.397 104.151 175.436C101.963 172.491 100.853 168.548 100.853 163.608C100.853 158.667 102.526 154.081 105.888 149.832C109.251 145.584 114.286 142.188 120.994 139.646C127.702 137.103 136.067 135.848 146.073 135.848C156.079 135.848 164.992 137.216 171.973 139.967C178.971 142.719 184.231 146.614 187.803 151.699C191.358 156.768 193.144 162.883 193.144 170.013C193.144 173.859 192.597 177.592 191.503 181.229C190.409 184.866 188.655 188.664 186.258 192.639C183.861 196.614 180.628 200.975 176.59 205.706C172.552 210.438 167.501 215.829 161.485 221.847C155.452 227.882 148.326 234.802 140.105 242.623L119.546 262.16H167.453C171.7 262.16 175.303 260.92 178.247 258.458C181.191 255.996 183.282 252.488 184.521 247.966L186.162 241.593H198.291L197.262 284.786H100.001H100.017Z" fill="#0E282D"/>
<path d="M217.435 286.427C212.77 286.427 208.796 285.22 205.514 282.822C202.233 280.425 200.576 276.144 200.576 269.964C200.576 263.785 202.217 259.343 205.514 257.01C208.796 254.676 212.786 253.518 217.435 253.518C222.084 253.518 225.896 254.676 229.259 257.01C232.621 259.343 234.294 263.656 234.294 269.964C234.294 276.273 232.621 280.425 229.259 282.822C225.896 285.22 221.955 286.427 217.435 286.427Z" fill="#0E282D"/>
<path d="M284.662 286.845C272.195 286.845 262.253 283.691 254.853 277.383C247.453 271.075 242.144 262.24 238.911 250.846C235.693 239.468 234.085 226.16 234.085 210.936C234.085 195.712 235.693 182.484 238.911 171.235C242.128 159.986 247.437 151.28 254.853 145.117C262.253 138.953 272.259 135.863 284.871 135.863C296.791 135.863 306.427 138.953 313.763 145.117C321.099 151.28 326.472 160.035 329.898 171.348C333.325 182.661 335.046 195.921 335.046 211.145C335.046 226.369 333.325 239.629 329.898 250.943C326.472 262.256 321.05 271.075 313.65 277.367C306.25 283.675 296.582 286.829 284.662 286.829V286.845ZM284.662 273.472C289.729 273.472 293.606 271.01 296.277 266.07C298.947 261.129 300.765 254 301.73 244.682C302.679 235.365 303.162 224.18 303.162 211.161C303.162 198.142 302.679 186.829 301.73 177.64C300.765 168.451 298.979 161.419 296.389 156.559C293.783 151.699 289.938 149.252 284.871 149.252C279.804 149.252 275.894 151.682 273.144 156.559C270.393 161.435 268.511 168.451 267.497 177.64C266.468 186.829 265.953 197.997 265.953 211.161C265.953 224.325 266.468 235.365 267.497 244.682C268.527 254 270.377 261.129 273.047 266.07C275.718 271.01 279.594 273.472 284.662 273.472Z" fill="#0E282D"/>
<path d="M304.545 305.899C311.8 301.264 317.511 294.055 323.753 288.294C330.139 282.404 337.636 277.093 346.258 276.015C333.952 268.339 318.493 265.909 304.433 269.433C290.373 272.957 277.873 282.372 270.618 294.924C268.864 297.949 267.385 301.361 267.851 304.821C268.221 307.541 269.476 310.164 272.098 311.306C273.739 312.03 275.573 312.191 277.358 312.272C285.884 312.658 294.78 311.29 302.357 307.187C303.097 306.784 303.837 306.35 304.545 305.899Z" fill="#6CCCDF"/>
<path d="M332.231 274.873C312.959 284.319 293.043 292.382 274.752 303.711C282.747 296.405 292.4 291.175 302.068 286.444C311.816 281.825 321.855 277.818 332.231 274.873Z" fill="#E2F5F8"/>
<path d="M312.862 281.97L325.667 272.523L313.892 283.209L312.862 281.97Z" fill="#E2F5F8"/>
<path d="M318.074 279.766L328.37 280.651L318.058 281.375L318.074 279.766Z" fill="#E2F5F8"/>
<path d="M305.639 285.318L321.533 287.394L305.51 286.928L305.639 285.318Z" fill="#E2F5F8"/>
<path d="M302.164 286.926L313.876 273.086L303.435 287.923L302.164 286.926Z" fill="#E2F5F8"/>
<path d="M296.47 289.824L313.827 293.542L296.196 291.401L296.47 289.824Z" fill="#E2F5F8"/>
<path d="M289.391 293.492L301.408 276.418L290.743 294.361L289.391 293.492Z" fill="#E2F5F8"/>
<path d="M285.177 296.02L304.159 300.638L284.871 297.597L285.177 296.02Z" fill="#E2F5F8"/>
<path d="M279.224 299.64L289.037 280.65L280.672 300.332L279.224 299.64Z" fill="#E2F5F8"/>
<path d="M276.779 301.506L294.121 305.77L276.474 303.083L276.779 301.506Z" fill="#E2F5F8"/>
<path d="M302.647 320.898C311.205 319.997 319.522 316.103 327.694 313.721C336.043 311.291 345.116 309.907 353.321 312.788C345.728 300.428 332.987 291.352 318.83 288.214C304.674 285.076 289.295 287.924 277.197 295.923C274.286 297.854 271.422 300.235 270.296 303.534C269.411 306.125 269.363 309.038 271.197 311.243C272.339 312.627 273.916 313.592 275.476 314.461C282.941 318.613 291.499 321.365 300.105 321.075C300.958 321.043 301.794 320.995 302.647 320.898Z" fill="#6CCCDF"/>
<path d="M341.272 305.514C319.812 305.353 298.384 303.663 276.972 305.642C287.38 302.681 298.352 302.295 309.114 302.392C319.892 302.617 330.67 303.502 341.272 305.514Z" fill="#E2F5F8"/>
<path d="M320.777 303.212L336.445 300.477L321.131 304.773L320.777 303.212Z" fill="#E2F5F8"/>
<path d="M326.423 303.566L335.223 308.957L325.683 304.999L326.423 303.566Z" fill="#E2F5F8"/>
<path d="M312.814 302.971L326.102 311.934L311.977 304.355L312.814 302.971Z" fill="#E2F5F8"/>
<path d="M308.985 302.874L325.635 295.713L309.677 304.323L308.985 302.874Z" fill="#E2F5F8"/>
<path d="M302.599 302.906L316.466 313.978L301.65 304.21L302.599 302.906Z" fill="#E2F5F8"/>
<path d="M294.62 303.02L312.991 293.139L295.44 304.404L294.62 303.02Z" fill="#E2F5F8"/>
<path d="M289.729 303.406L304.642 316.023L288.748 304.678L289.729 303.406Z" fill="#E2F5F8"/>
<path d="M282.78 303.985L300.041 291.385L283.777 305.257L282.78 303.985Z" fill="#E2F5F8"/>
<path d="M279.755 304.564L293.381 316.119L278.774 305.852L279.755 304.564Z" fill="#E2F5F8"/>
<path d="M126.544 290.322C119.803 295.681 114.865 303.437 109.25 309.826C103.507 316.344 96.5901 322.395 88.1284 324.358C101.159 330.715 116.779 331.535 130.421 326.595C144.046 321.638 155.5 310.985 161.436 297.741C162.868 294.554 163.994 291.014 163.174 287.618C162.53 284.963 161.002 282.468 158.283 281.599C156.578 281.052 154.744 281.085 152.942 281.181C144.416 281.68 135.713 283.965 128.603 288.809C127.895 289.292 127.22 289.791 126.56 290.322H126.544Z" fill="#6CCCDF"/>
<path d="M102.204 324.037C120.399 312.66 139.381 302.57 156.401 289.422C149.21 297.5 140.153 303.712 131.016 309.409C121.798 315.009 112.227 320.03 102.204 324.037Z" fill="#E2F5F8"/>
<path d="M120.737 314.976L108.993 325.694L119.594 313.85L120.737 314.976Z" fill="#E2F5F8"/>
<path d="M115.798 317.713L105.47 317.89L115.637 316.104L115.798 317.713Z" fill="#E2F5F8"/>
<path d="M127.59 310.904L111.567 310.486L127.557 309.295L127.59 310.904Z" fill="#E2F5F8"/>
<path d="M130.871 308.941L120.656 323.907L129.504 308.088L130.871 308.941Z" fill="#E2F5F8"/>
<path d="M136.244 305.481L118.597 303.566L136.341 303.872L136.244 305.481Z" fill="#E2F5F8"/>
<path d="M142.904 301.106L132.705 319.306L141.473 300.365L142.904 301.106Z" fill="#E2F5F8"/>
<path d="M146.829 298.143L127.493 295.504L146.99 296.55L146.829 298.143Z" fill="#E2F5F8"/>
<path d="M152.395 293.928L144.577 313.818L150.867 293.396L152.395 293.928Z" fill="#E2F5F8"/>
<path d="M154.632 291.819L136.936 289.373L154.776 290.21L154.632 291.819Z" fill="#E2F5F8"/>
<path d="M126.898 275.194C118.468 276.981 110.602 281.712 102.719 284.914C94.6758 288.181 85.7797 290.515 77.3341 288.487C86.1497 299.993 99.7592 307.718 114.173 309.375C128.571 311.033 143.58 306.624 154.792 297.418C157.495 295.198 160.085 292.542 160.873 289.131C161.485 286.459 161.227 283.563 159.184 281.567C157.897 280.312 156.24 279.523 154.599 278.815C146.749 275.452 137.949 273.601 129.407 274.776C128.571 274.889 127.734 275.033 126.898 275.21V275.194Z" fill="#6CCCDF"/>
<path d="M90.0589 294.489C111.422 292.43 132.898 291.898 154.004 287.73C143.95 291.754 133.075 293.266 122.361 294.28C111.615 295.165 100.805 295.391 90.0589 294.506V294.489Z" fill="#E2F5F8"/>
<path d="M110.682 294.667L95.3836 298.996L110.167 293.139L110.682 294.667Z" fill="#E2F5F8"/>
<path d="M105.036 294.893L95.7214 290.451L105.615 293.396L105.036 294.893Z" fill="#E2F5F8"/>
<path d="M118.629 294.087L104.489 286.539L119.321 292.622L118.629 294.087Z" fill="#E2F5F8"/>
<path d="M122.458 293.782L106.612 302.617L121.605 292.414L122.458 293.782Z" fill="#E2F5F8"/>
<path d="M128.796 293.089L113.867 283.498L129.616 291.705L128.796 293.089Z" fill="#E2F5F8"/>
<path d="M136.711 292.155L119.466 303.887L135.762 290.852L136.711 292.155Z" fill="#E2F5F8"/>
<path d="M141.553 291.271L125.418 280.264L142.406 289.903L141.553 291.271Z" fill="#E2F5F8"/>
<path d="M148.406 289.967L132.544 304.29L147.28 288.809L148.406 289.967Z" fill="#E2F5F8"/>
<path d="M151.35 289.082L136.614 278.992L152.186 287.714L151.35 289.082Z" fill="#E2F5F8"/>
</svg>
